<svg xmlns="http://www.w3.org/2000/svg" width="24" height="24" fill="none" aria-hidden="true" aria-labelledby=":rkp:" class="ltr-4z3qvp e1svuwfo1" data-name="Flag"><path fill="#fff" fill-rule="evenodd" d="M3 2a1 1 0 0 0-1 1v19h2V10.579c1.85.029 3.241.142 5 .334v2.658a1 1 0 0 0 .726.962C13.026 15.473 15.873 16 21 16a1 1 0 0 0 1-1V8.429a1 1 0 0 0-1-1c-2.383 0-3.939-.117-6-.342V4.43a1 1 0 0 0-.726-.962C10.974 2.528 8.127 2 3 2Zm1 6.579c2.257.034 3.859.188 6.113.446l.887.101v3.685c2.616.706 5.052 1.123 9 1.182V9.42c-2.257-.034-3.859-.188-6.113-.446L13 8.874V5.189c-2.616-.706-5.051-1.123-9-1.182V8.58Z" clip-rule="evenodd"/></svg>