<svg xmlns="http://www.w3.org/2000/svg" width="24" height="24" fill="none" aria-hidden="true" aria-labelledby=":ru4:" class="ltr-4z3qvp e1svuwfo1" data-name="InternetSpeed"><path fill="#fff" fill-rule="evenodd" d="M19.057 6.27c-3.902-4.064-10.212-4.064-14.114 0C1.02 10.357 1.02 17 4.943 21.085L3.501 22.47c-4.668-4.86-4.668-12.725 0-17.585C8.19 0 15.81 0 20.499 4.885c4.668 4.86 4.668 12.725 0 17.585l-1.442-1.385c3.924-4.087 3.924-10.728 0-14.815ZM15 14a3 3 0 1 1-1.707-2.708l3-2.999 1.414 1.414-3 3c.188.391.293.83.293 1.293Z" clip-rule="evenodd"/></svg>